<mxfile host="app.diagrams.net" version="22.1.16" type="device">
  <diagram name="Evolution R-Type 2" id="evolution">
    <mxGraphModel dx="1400" dy="900" grid="1" gridSize="10" guides="1" tooltips="1" connect="1" arrows="1" fold="1" page="1" pageScale="1" pageWidth="1169" pageHeight="827" math="0" shadow="0">
      <root>
        <mxCell id="0" />
        <mxCell id="1" parent="0" />
        
        <!-- Title -->
        <mxCell id="2" value="R-Type 2 - Evolution du Projet (29 Questions)" style="text;html=1;strokeColor=none;fillColor=none;align=center;verticalAlign=middle;whiteSpace=wrap;rounded=0;fontSize=18;fontStyle=1;fontColor=#232F3E;" vertex="1" parent="1">
          <mxGeometry x="300" y="20" width="500" height="30" as="geometry" />
        </mxCell>
        
        <!-- Phase 1: Fondations (Q1-5) -->
        <mxCell id="3" value="PHASE 1: FONDATIONS&#xa;Questions 1-5" style="rounded=1;whiteSpace=wrap;html=1;fillColor=#E1D5E7;strokeColor=#9673A6;fontSize=14;fontStyle=1;" vertex="1" parent="1">
          <mxGeometry x="80" y="80" width="200" height="50" as="geometry" />
        </mxCell>
        
        <mxCell id="4" value="• Structure projet de base&#xa;• Configuration Phaser.js&#xa;• Scenes principales (Menu, Game, GameOver)&#xa;• Entités de base (Player, Enemy, Bullet)&#xa;• Système de score initial" style="text;html=1;strokeColor=#9673A6;fillColor=#F0F0F0;align=left;verticalAlign=top;whiteSpace=wrap;rounded=1;fontSize=10;" vertex="1" parent="1">
          <mxGeometry x="80" y="140" width="200" height="80" as="geometry" />
        </mxCell>
        
        <!-- Phase 2: Gameplay Core (Q6-12) -->
        <mxCell id="5" value="PHASE 2: GAMEPLAY CORE&#xa;Questions 6-12" style="rounded=1;whiteSpace=wrap;html=1;fillColor=#DAE8FC;strokeColor=#6C8EBF;fontSize=14;fontStyle=1;" vertex="1" parent="1">
          <mxGeometry x="320" y="80" width="200" height="50" as="geometry" />
        </mxCell>
        
        <mxCell id="6" value="• Système de progression niveaux&#xa;• Système de vies (3 vies)&#xa;• Persistance données entre niveaux&#xa;• Statistiques de jeu complètes&#xa;• Gestion collisions et dégâts&#xa;• Invulnérabilité temporaire&#xa;• Boss avec patterns d'attaque" style="text;html=1;strokeColor=#6C8EBF;fillColor=#F0F0F0;align=left;verticalAlign=top;whiteSpace=wrap;rounded=1;fontSize=10;" vertex="1" parent="1">
          <mxGeometry x="320" y="140" width="200" height="100" as="geometry" />
        </mxCell>
        
        <!-- Phase 3: Assets & Visuals (Q13-18) -->
        <mxCell id="7" value="PHASE 3: ASSETS & VISUALS&#xa;Questions 13-18" style="rounded=1;whiteSpace=wrap;html=1;fillColor=#D5E8D4;strokeColor=#82B366;fontSize=14;fontStyle=1;" vertex="1" parent="1">
          <mxGeometry x="560" y="80" width="200" height="50" as="geometry" />
        </mxCell>
        
        <mxCell id="8" value="• Sprite DeLorean 8-bit (player)&#xa;• 3 vaisseaux ennemis colorés&#xa;• Système de fallback assets&#xa;• Terrain alien interactif&#xa;• Collisions mortelles terrain&#xa;• Sélection aléatoire sprites&#xa;• Tests visuels complets" style="text;html=1;strokeColor=#82B366;fillColor=#F0F0F0;align=left;verticalAlign=top;whiteSpace=wrap;rounded=1;fontSize=10;" vertex="1" parent="1">
          <mxGeometry x="560" y="140" width="200" height="100" as="geometry" />
        </mxCell>
        
        <!-- Phase 4: Combat System (Q19-22) -->
        <mxCell id="9" value="PHASE 4: COMBAT SYSTEM&#xa;Questions 19-22" style="rounded=1;whiteSpace=wrap;html=1;fillColor=#FFF2CC;strokeColor=#D6B656;fontSize=14;fontStyle=1;" vertex="1" parent="1">
          <mxGeometry x="800" y="80" width="200" height="50" as="geometry" />
        </mxCell>
        
        <mxCell id="10" value="• Cadence de tir équilibrée (5s)&#xa;• Système de tir des ennemis&#xa;• Groupes d'ennemis organisés&#xa;• Patterns de mouvement&#xa;• Collision bullets/entities&#xa;• Balance gameplay" style="text;html=1;strokeColor=#D6B656;fillColor=#F0F0F0;align=left;verticalAlign=top;whiteSpace=wrap;rounded=1;fontSize=10;" vertex="1" parent="1">
          <mxGeometry x="800" y="140" width="200" height="90" as="geometry" />
        </mxCell>
        
        <!-- Phase 5: Testing & Quality (Q23-25) -->
        <mxCell id="11" value="PHASE 5: TESTING & QUALITY&#xa;Questions 23-25" style="rounded=1;whiteSpace=wrap;html=1;fillColor=#F8CECC;strokeColor=#B85450;fontSize=14;fontStyle=1;" vertex="1" parent="1">
          <mxGeometry x="80" y="280" width="200" height="50" as="geometry" />
        </mxCell>
        
        <mxCell id="12" value="• Suite de tests automatisés (182)&#xa;• Tests unitaires complets&#xa;• Interfaces de test visuelles&#xa;• Validation fonctionnalités&#xa;• Couverture de code élevée&#xa;• Scripts de test robustes" style="text;html=1;strokeColor=#B85450;fillColor=#F0F0F0;align=left;verticalAlign=top;whiteSpace=wrap;rounded=1;fontSize=10;" vertex="1" parent="1">
          <mxGeometry x="80" y="340" width="200" height="90" as="geometry" />
        </mxCell>
        
        <!-- Phase 6: Architecture & Docs (Q26-27) -->
        <mxCell id="13" value="PHASE 6: ARCHITECTURE & DOCS&#xa;Questions 26-27" style="rounded=1;whiteSpace=wrap;html=1;fillColor=#E1D5E7;strokeColor=#9673A6;fontSize=14;fontStyle=1;" vertex="1" parent="1">
          <mxGeometry x="320" y="280" width="200" height="50" as="geometry" />
        </mxCell>
        
        <mxCell id="14" value="• 10 schémas d'architecture&#xa;• Documentation technique complète&#xa;• Diagrammes draw.io&#xa;• Structure projet organisée&#xa;• Scripts utilitaires (start, stop, diagnose)&#xa;• Réorganisation professionnelle" style="text;html=1;strokeColor=#9673A6;fillColor=#F0F0F0;align=left;verticalAlign=top;whiteSpace=wrap;rounded=1;fontSize=10;" vertex="1" parent="1">
          <mxGeometry x="320" y="340" width="200" height="90" as="geometry" />
        </mxCell>
        
        <!-- Phase 7: AWS & Deployment (Q28) -->
        <mxCell id="15" value="PHASE 7: AWS & DEPLOYMENT&#xa;Question 28" style="rounded=1;whiteSpace=wrap;html=1;fillColor=#DAE8FC;strokeColor=#6C8EBF;fontSize=14;fontStyle=1;" vertex="1" parent="1">
          <mxGeometry x="560" y="280" width="200" height="50" as="geometry" />
        </mxCell>
        
        <mxCell id="16" value="• Infrastructure AWS complète&#xa;• S3 + CloudFront + Route 53&#xa;• Diagrammes AWS avec icônes&#xa;• CloudFormation IaC&#xa;• Monitoring CloudWatch + SNS&#xa;• Coûts optimisés (1.67$/mois)&#xa;• Sécurité production" style="text;html=1;strokeColor=#6C8EBF;fillColor=#F0F0F0;align=left;verticalAlign=top;whiteSpace=wrap;rounded=1;fontSize=10;" vertex="1" parent="1">
          <mxGeometry x="560" y="340" width="200" height="100" as="geometry" />
        </mxCell>
        
        <!-- Phase 8: Production Ready (Q29) -->
        <mxCell id="17" value="PHASE 8: PRODUCTION READY&#xa;Question 29" style="rounded=1;whiteSpace=wrap;html=1;fillColor=#D5E8D4;strokeColor=#82B366;fontSize=14;fontStyle=1;" vertex="1" parent="1">
          <mxGeometry x="800" y="280" width="200" height="50" as="geometry" />
        </mxCell>
        
        <mxCell id="18" value="• Correction erreurs JavaScript&#xa;• Console propre (25+ logs supprimés)&#xa;• Performance optimisée&#xa;• Ordre chargement scripts corrigé&#xa;• Bullet reference error résolu&#xa;• Prêt pour déploiement" style="text;html=1;strokeColor=#82B366;fillColor=#F0F0F0;align=left;verticalAlign=top;whiteSpace=wrap;rounded=1;fontSize=10;" vertex="1" parent="1">
          <mxGeometry x="800" y="340" width="200" height="90" as="geometry" />
        </mxCell>
        
        <!-- Timeline Arrow -->
        <mxCell id="19" style="edgeStyle=orthogonalEdgeStyle;rounded=0;orthogonalLoop=1;jettySize=auto;html=1;exitX=1;exitY=0.5;exitDx=0;exitDy=0;entryX=0;entryY=0.5;entryDx=0;entryDy=0;strokeWidth=3;strokeColor=#FF6900;" edge="1" parent="1" source="3" target="5">
          <mxGeometry relative="1" as="geometry" />
        </mxCell>
        
        <mxCell id="20" style="edgeStyle=orthogonalEdgeStyle;rounded=0;orthogonalLoop=1;jettySize=auto;html=1;exitX=1;exitY=0.5;exitDx=0;exitDy=0;entryX=0;entryY=0.5;entryDx=0;entryDy=0;strokeWidth=3;strokeColor=#FF6900;" edge="1" parent="1" source="5" target="7">
          <mxGeometry relative="1" as="geometry" />
        </mxCell>
        
        <mxCell id="21" style="edgeStyle=orthogonalEdgeStyle;rounded=0;orthogonalLoop=1;jettySize=auto;html=1;exitX=1;exitY=0.5;exitDx=0;exitDy=0;entryX=0;entryY=0.5;entryDx=0;entryDy=0;strokeWidth=3;strokeColor=#FF6900;" edge="1" parent="1" source="7" target="9">
          <mxGeometry relative="1" as="geometry" />
        </mxCell>
        
        <mxCell id="22" style="edgeStyle=orthogonalEdgeStyle;rounded=0;orthogonalLoop=1;jettySize=auto;html=1;exitX=0.5;exitY=1;exitDx=0;exitDy=0;entryX=0.5;entryY=0;entryDx=0;entryDy=0;strokeWidth=3;strokeColor=#FF6900;" edge="1" parent="1" source="9" target="17">
          <mxGeometry relative="1" as="geometry" />
        </mxCell>
        
        <mxCell id="23" style="edgeStyle=orthogonalEdgeStyle;rounded=0;orthogonalLoop=1;jettySize=auto;html=1;exitX=1;exitY=0.5;exitDx=0;exitDy=0;entryX=0;entryY=0.5;entryDx=0;entryDy=0;strokeWidth=3;strokeColor=#FF6900;" edge="1" parent="1" source="11" target="13">
          <mxGeometry relative="1" as="geometry" />
        </mxCell>
        
        <mxCell id="24" style="edgeStyle=orthogonalEdgeStyle;rounded=0;orthogonalLoop=1;jettySize=auto;html=1;exitX=1;exitY=0.5;exitDx=0;exitDy=0;entryX=0;entryY=0.5;entryDx=0;entryDy=0;strokeWidth=3;strokeColor=#FF6900;" edge="1" parent="1" source="13" target="15">
          <mxGeometry relative="1" as="geometry" />
        </mxCell>
        
        <mxCell id="25" style="edgeStyle=orthogonalEdgeStyle;rounded=0;orthogonalLoop=1;jettySize=auto;html=1;exitX=1;exitY=0.5;exitDx=0;exitDy=0;entryX=0;entryY=0.5;entryDx=0;entryDy=0;strokeWidth=3;strokeColor=#FF6900;" edge="1" parent="1" source="15" target="17">
          <mxGeometry relative="1" as="geometry" />
        </mxCell>
        
        <!-- Metrics Box -->
        <mxCell id="26" value="METRIQUES FINALES" style="rounded=1;whiteSpace=wrap;html=1;fillColor=#232F3E;strokeColor=#FF9900;fontColor=#FFFFFF;fontSize=14;fontStyle=1;" vertex="1" parent="1">
          <mxGeometry x="80" y="480" width="200" height="30" as="geometry" />
        </mxCell>
        
        <mxCell id="27" value="• 29 Questions documentées&#xa;• 21+ Commits créés&#xa;• 182 Tests automatisés&#xa;• 11 Schémas d'architecture&#xa;• 10 Fichiers JavaScript&#xa;• 4 Répertoires organisés&#xa;• 1 Infrastructure AWS complète&#xa;• 0 Erreur en production" style="text;html=1;strokeColor=#FF9900;fillColor=#232F3E;align=left;verticalAlign=top;whiteSpace=wrap;rounded=1;fontSize=10;fontColor=#FFFFFF;" vertex="1" parent="1">
          <mxGeometry x="80" y="520" width="200" height="120" as="geometry" />
        </mxCell>
        
        <!-- Technologies Box -->
        <mxCell id="28" value="TECHNOLOGIES UTILISEES" style="rounded=1;whiteSpace=wrap;html=1;fillColor=#1BA1E2;strokeColor=#FFFFFF;fontColor=#FFFFFF;fontSize=14;fontStyle=1;" vertex="1" parent="1">
          <mxGeometry x="320" y="480" width="200" height="30" as="geometry" />
        </mxCell>
        
        <mxCell id="29" value="• Phaser.js 3.70.0 (Game Engine)&#xa;• HTML5 Canvas (Rendering)&#xa;• JavaScript ES6+ (Logic)&#xa;• SVG Assets (Graphics)&#xa;• LocalStorage (Persistence)&#xa;• AWS S3 + CloudFront (Hosting)&#xa;• CloudFormation (IaC)&#xa;• Draw.io (Documentation)" style="text;html=1;strokeColor=#1BA1E2;fillColor=#E3F2FD;align=left;verticalAlign=top;whiteSpace=wrap;rounded=1;fontSize=10;" vertex="1" parent="1">
          <mxGeometry x="320" y="520" width="200" height="120" as="geometry" />
        </mxCell>
        
        <!-- Quality Box -->
        <mxCell id="30" value="QUALITE & ROBUSTESSE" style="rounded=1;whiteSpace=wrap;html=1;fillColor=#2E7D32;strokeColor=#FFFFFF;fontColor=#FFFFFF;fontSize=14;fontStyle=1;" vertex="1" parent="1">
          <mxGeometry x="560" y="480" width="200" height="30" as="geometry" />
        </mxCell>
        
        <mxCell id="31" value="• Gestion erreurs complète&#xa;• Système de fallback assets&#xa;• Tests automatisés (182)&#xa;• Documentation technique&#xa;• Architecture modulaire&#xa;• Console propre (production)&#xa;• Performance optimisée&#xa;• Déploiement automatisé" style="text;html=1;strokeColor=#2E7D32;fillColor=#E8F5E8;align=left;verticalAlign=top;whiteSpace=wrap;rounded=1;fontSize=10;" vertex="1" parent="1">
          <mxGeometry x="560" y="520" width="200" height="120" as="geometry" />
        </mxCell>
        
        <!-- Future Box -->
        <mxCell id="32" value="PERSPECTIVES FUTURES" style="rounded=1;whiteSpace=wrap;html=1;fillColor=#7B1FA2;strokeColor=#FFFFFF;fontColor=#FFFFFF;fontSize=14;fontStyle=1;" vertex="1" parent="1">
          <mxGeometry x="800" y="480" width="200" height="30" as="geometry" />
        </mxCell>
        
        <mxCell id="33" value="• Multijoueur en ligne&#xa;• Nouveaux niveaux/boss&#xa;• Power-ups avancés&#xa;• Système de achievements&#xa;• Leaderboards globaux&#xa;• Mobile responsive&#xa;• PWA (Progressive Web App)&#xa;• Analytics avancées" style="text;html=1;strokeColor=#7B1FA2;fillColor=#F3E5F5;align=left;verticalAlign=top;whiteSpace=wrap;rounded=1;fontSize=10;" vertex="1" parent="1">
          <mxGeometry x="800" y="520" width="200" height="120" as="geometry" />
        </mxCell>
        
        <!-- Timeline Labels -->
        <mxCell id="34" value="Développement Itératif" style="text;html=1;strokeColor=none;fillColor=none;align=center;verticalAlign=middle;whiteSpace=wrap;rounded=0;fontSize=12;fontStyle=1;fontColor=#FF6900;" vertex="1" parent="1">
          <mxGeometry x="450" y="50" width="150" height="20" as="geometry" />
        </mxCell>
        
        <mxCell id="35" value="8 Phases de Développement" style="text;html=1;strokeColor=none;fillColor=none;align=center;verticalAlign=middle;whiteSpace=wrap;rounded=0;fontSize=12;fontStyle=1;fontColor=#FF6900;" vertex="1" parent="1">
          <mxGeometry x="450" y="250" width="150" height="20" as="geometry" />
        </mxCell>
        
        <!-- Success Indicator -->
        <mxCell id="36" value="PROJET REUSSI" style="rounded=1;whiteSpace=wrap;html=1;fillColor=#4CAF50;strokeColor=#2E7D32;fontColor=#FFFFFF;fontSize=16;fontStyle=1;" vertex="1" parent="1">
          <mxGeometry x="450" y="680" width="200" height="40" as="geometry" />
        </mxCell>
        
        <mxCell id="37" value="Jeu complet, robuste et déployable en production" style="text;html=1;strokeColor=none;fillColor=none;align=center;verticalAlign=middle;whiteSpace=wrap;rounded=0;fontSize=12;fontStyle=1;fontColor=#2E7D32;" vertex="1" parent="1">
          <mxGeometry x="400" y="730" width="300" height="20" as="geometry" />
        </mxCell>
      </root>
    </mxGraphModel>
  </diagram>
</mxfile>
